<svg xmlns="http://www.w3.org/2000/svg" width="360" height="580" viewBox="0 0 360 580">
  <defs>
    <linearGradient id="bgGrad" x1="0" y1="0" x2="0" y2="1">
      <stop offset="0%"   stop-color="#07091e"/>
      <stop offset="50%"  stop-color="#0a0e2a"/>
      <stop offset="100%" stop-color="#0d1535"/>
    </linearGradient>
  </defs>
  <rect width="360" height="580" fill="url(#bgGrad)"/>
  <!-- stars -->
  <circle cx="42"  cy="28"  r="1.0" fill="white" opacity="0.55"/>
  <circle cx="118" cy="15"  r="1.3" fill="white" opacity="0.70"/>
  <circle cx="195" cy="44"  r="0.8" fill="white" opacity="0.45"/>
  <circle cx="274" cy="22"  r="1.1" fill="white" opacity="0.60"/>
  <circle cx="320" cy="60"  r="0.9" fill="white" opacity="0.40"/>
  <circle cx="68"  cy="88"  r="1.2" fill="white" opacity="0.50"/>
  <circle cx="155" cy="105" r="0.7" fill="white" opacity="0.35"/>
  <circle cx="240" cy="80"  r="1.4" fill="white" opacity="0.65"/>
  <circle cx="305" cy="130" r="1.0" fill="white" opacity="0.50"/>
  <circle cx="30"  cy="160" r="0.8" fill="white" opacity="0.42"/>
  <circle cx="92"  cy="210" r="1.1" fill="white" opacity="0.55"/>
  <circle cx="180" cy="180" r="0.9" fill="white" opacity="0.38"/>
  <circle cx="255" cy="220" r="1.3" fill="white" opacity="0.60"/>
  <circle cx="340" cy="195" r="0.7" fill="white" opacity="0.45"/>
  <circle cx="60"  cy="310" r="1.0" fill="white" opacity="0.40"/>
  <circle cx="145" cy="280" r="0.8" fill="white" opacity="0.50"/>
  <circle cx="220" cy="340" r="1.2" fill="white" opacity="0.55"/>
  <circle cx="295" cy="300" r="0.9" fill="white" opacity="0.42"/>
  <circle cx="15"  cy="400" r="1.1" fill="white" opacity="0.48"/>
  <circle cx="100" cy="440" r="1.3" fill="white" opacity="0.62"/>
  <circle cx="190" cy="420" r="0.7" fill="white" opacity="0.38"/>
  <circle cx="270" cy="460" r="1.0" fill="white" opacity="0.52"/>
  <circle cx="340" cy="380" r="0.8" fill="white" opacity="0.44"/>
  <circle cx="50"  cy="530" r="0.9" fill="white" opacity="0.40"/>
  <circle cx="160" cy="560" r="1.1" fill="white" opacity="0.50"/>
  <circle cx="240" cy="510" r="0.8" fill="white" opacity="0.46"/>
  <circle cx="310" cy="545" r="1.2" fill="white" opacity="0.58"/>
  <!-- label -->
  <text x="180" y="575" text-anchor="middle" font-family="monospace" font-size="9" fill="rgba(96,160,232,0.30)" letter-spacing="2">360×580 BG MOCK</text>
</svg>
